<svg width="136" height="29" viewBox="0 0 136 29" fill="none" xmlns="http://www.w3.org/2000/svg">
<path d="M33.3 0.800049H37.9V8.80005C38.6 7.90005 40 6.80005 42.8 6.80005C46.8 6.80005 49.9 9.90005 49.9 14.2C49.9 19.2001 46.6 22.2001 42.5 22.2001C39.7 22.2001 38.5 21.2 37.8 20.1C37.8 20.5 37.8 21.4 37.7 21.8H33.3C33.3 19.7 33.3 18.5 33.3 16.9V0.800049ZM45.2 14.5C45.2 12.4 44.1 10.5 41.6 10.5C39 10.5 37.9 12.1 37.9 14.6C37.9 16.9 39.1 18.7001 41.6 18.7001C44 18.7001 45.2 16.8 45.2 14.5Z" fill="#1D1D1B"/>
<path d="M53 11.3C53 9.99999 53 8.59999 53 7.29999H57.5C57.6 7.79999 57.6 9.39999 57.6 10.2C58.4 8.29999 60.2 6.79999 63.2 6.89999V11.1C59.9 11 57.6 12.4 57.6 16.6V22H53V11.3Z" fill="#1D1D1B"/>
<path d="M69.6 15.7C69.7 17.5 71 18.9 73.2 18.9C74.9 18.9 75.8 18.4 76.3 17.5H80.9C80 20.1 77.8 22.4 73.1 22.4C67.1 22.4 64.9 18.4 64.9 14.7C64.9 10.6 67.7 7 73 7C78.7 7 81 10.9 81 14.7C81 15.1 81 15.3 81 15.8H69.6V15.7ZM76.4 12.9C76.3 11.8 75.7 10.1 73.1 10.1C70.7 10.1 69.8 11.4 69.6 12.9H76.4Z" fill="#1D1D1B"/>
<path d="M87.8 15.7C87.9 17.5 89.2 18.9 91.4 18.9C93.1 18.9 94 18.4 94.5 17.5H99.1C98.2 20.1 96 22.4 91.3 22.4C85.3 22.4 83.1 18.4 83.1 14.7C83.1 10.6 85.9 7 91.2 7C96.9 7 99.2 10.9 99.2 14.7C99.2 15.1 99.2 15.3 99.2 15.8H87.8V15.7ZM94.6 12.9C94.5 11.8 93.9 10.1 91.3 10.1C88.9 10.1 88 11.4 87.8 12.9H94.6Z" fill="#1D1D1B"/>
<path d="M105.4 7.30005C107.2 9.60005 108.5 11.2 109 11.8H109.1C109.8 10.9 110.9 9.40005 112.5 7.30005H117.4L111.5 14.3L117.6 22H112.4C110.6 19.6 109.3 18.1 108.7 17.3H108.6C108.1 17.9 107 19.4 105 22H100.1L106 14.6L100 7.40005H105.4V7.30005Z" fill="#1D1D1B"/>
<path d="M123.1 7.30005C125.6 13.7 126.7 17.2001 127 18.2001H127.1C127.5 16.7001 128.6 12.9 130.6 7.30005H135.3L130.4 19.9C127.9 26.4 127.1 28.6 122.1 28.6C121.4 28.6 120.4 28.5001 119.8 28.4001V24.7001C120.5 24.8001 120.8 24.8 121.3 24.8C123.3 24.8 123.8 24.2 124.5 22.6L118 7.40005H123.1V7.30005Z" fill="#1D1D1B"/>
<path fill-rule="evenodd" clip-rule="evenodd" d="M27.5 15.1C27.5 15 27.5 15 27.5 14.9C27.5 14.8 27.4 14.6 27.4 14.5C27.4 14.4 27.4 14.3 27.3 14.3C27.1 14.2 27.3 14 27.1 13.9C27 13.8 27.1 13.7 27 13.6C27 13.5 27 13.5 27 13.4C26.9 13.3 27 13.2 26.9 13.2C26.8 13.1 26.9 13 26.8 13V12.9V12.8C26.7 12.7 26.8 12.6 26.7 12.6V12.5C26.6 12.4 26.7 12.3 26.6 12.3V12.2C26.5 12.1 26.6 12 26.5 11.9V11.8V11.7C26.5 11.6 26.5 11.6 26.4 11.5C26.3 11.4 26.4 11.3 26.3 11.2V11.1V11L26.2 10.9V10.8L26.1 10.7V10.6C26 10.5 26.1 10.4 26 10.4C25.9 10.3 26 10.2 25.9 10.2C25.8 10.1 25.9 9.99995 25.8 9.99995V9.89995V9.79995L25.7 9.69995V9.59995L25.6 9.49995C25.5 9.39995 25.5 9.29995 25.4 9.19995C25.3 9.09995 25.4 8.99995 25.3 8.99995L25.2 8.89995C25.1 8.79995 25.2 8.69995 25.1 8.69995C25 8.59995 24.9 8.69995 24.9 8.59995C24.8 8.49995 24.9 8.39995 24.8 8.39995L24.7 8.29995L24.6 8.19995L24.5 8.09995C24.4 7.99995 24.3 7.99995 24.3 7.89995L24.2 7.79995L24.1 7.69995L24 7.59995L23.9 7.49995L23.8 7.39995L23.7 7.29995C23.6 7.19995 23.5 7.19995 23.5 7.09995L23.4 6.99995L23.3 6.89995C23.2 6.79995 23.1 6.79995 23 6.69995L22.9 6.59995L22.8 6.49995C22.7 6.39995 22.6 6.49995 22.6 6.39995C22.5 6.29995 22.5 6.29995 22.4 6.39995V6.29995L22.3 6.19995H22.2L22.1 6.09995L22 5.99995C21.9 5.89995 21.8 5.99995 21.8 5.89995L21.7 5.79995C21.6 5.69995 21.5 5.69995 21.4 5.79995V5.89995C21.2 5.79995 20.9 5.79995 20.7 5.69995C20.5 5.69995 20.3 5.69995 20.2 5.69995C20.1 5.69995 20.1 5.69995 20 5.69995C19.8 5.59995 19.6 5.59995 19.4 5.59995C18.7 5.49995 18 5.29995 17.3 5.29995C17.2 5.29995 17.2 5.29995 17.1 5.29995C16.2 5.09995 15.2 5.19995 14.3 5.39995C13.9 5.49995 13.4 5.69995 13 5.79995C12.9 5.89995 12.7 5.99995 12.5 5.99995C12.3 6.09995 12.2 6.19995 11.9 6.19995C11.8 6.29995 11.6 6.39995 11.5 6.39995C11.2 6.59995 11 6.89995 10.6 6.99995C10.5 7.09995 10.4 7.19995 10.3 7.29995C10.2 7.29995 10.2 7.29995 10.1 7.39995L10 7.49995C9.7 7.89995 9.3 8.19995 9 8.59995C8.9 8.59995 8.9 8.59995 8.8 8.69995L8.7 8.79995L8.6 8.89995C8.5 9.09995 8.3 9.29995 8.1 9.39995L8 9.49995L7.9 9.59995C7.9 9.69995 7.8 9.79995 7.7 9.89995C7.7 10.1 7.6 10.2 7.5 10.2V10.3H7.4C7.3 10.4 7.2 10.5 7.2 10.6C7.1 10.8 7.1 11 7 11.2C6.9 11.3 7 11.4 6.9 11.4C6.8 11.5 6.9 11.6 6.8 11.7C6.7 11.8 6.8 11.9 6.7 12C6.6 12.1 6.7 12.3 6.6 12.5V12.6C6.5 12.8 6.6 13 6.5 13.2C6.5 13.3 6.5 13.3 6.5 13.4C6.4 13.7 6.5 14 6.5 14.3C6.6 14.3 6.6 14.3 6.7 14.4H6.6C6.5 15.1 6.7 15.8 6.9 16.4C7 16.8 7.1 17.2 7.3 17.5C7.3 17.6 7.3 17.6 7.3 17.7H7.4C7.4 17.9 7.4 18 7.5 18.1H7.6C7.6 18.2 7.6 18.3 7.6 18.4L7.7 18.5C7.8 18.5 7.8 18.6 7.8 18.7C7.9 18.8 7.9 18.8 7.9 18.9C8 19 8.1 19.1 8.1 19.2C8.2 19.3 8.3 19.4 8.3 19.5L8.4 19.6C8.5 19.6 8.5 19.7 8.6 19.7C8.6 19.8 8.6 19.8 8.6 19.9L8.7 20L8.8 20.0999L8.9 20.2C9 20.2 9 20.2999 9 20.2999L9.1 20.4L9.2 20.5L9.3 20.5999L9.4 20.7H9.5V20.7999L9.6 20.9L9.7 21L9.8 21.0999L9.9 21.2C10 21.2 10 21.2999 10.1 21.2999C10.2 21.4 10.2 21.5 10.3 21.5C10.4 21.6 10.5 21.6 10.5 21.7L10.6 21.7999C10.7 21.7999 10.7 21.7999 10.8 21.7999C11 22.1999 11.3 22.2999 11.7 22.2999H11.8C11.9 22.4 12 22.3 12 22.4C12.1 22.5 12.2 22.4 12.2 22.5C12.3 22.6 12.4 22.4999 12.5 22.5999C12.7 22.7999 12.9 22.6999 13.1 22.7999C13.2 22.9 13.4 22.9 13.5 22.7999V22.9H13.6C13.9 23 14.2 23 14.5 22.9H14.6C14.7 22.8 14.9 22.9 15.1 22.7999L15.2 22.7C15.7 22.8 16.2 22.8 16.7 22.7H16.8C16.9 22.6 17.1 22.6999 17.3 22.5999C17.4 22.5999 17.5 22.5999 17.6 22.5999C17.7 22.4999 17.8 22.6 17.9 22.5C17.9 22.5 17.9 22.5 17.9 22.4C18 22.4 18.2 22.4 18.3 22.2999C18.4 22.1999 18.5 22.3 18.6 22.2H18.7L18.8 22.0999C18.9 21.9999 19 22.1 19 22C19.1 21.9 19.2 22 19.2 21.9H19.3C19.4 21.8 19.5 21.9 19.5 21.7999H19.6C19.7 21.6999 19.8 21.8 19.8 21.7C19.9 21.6 20 21.6 20 21.5C20.1 21.4 20.2 21.4 20.2 21.2999V21.2C20.2 21.2 20.2 21.2 20.3 21.2C20.3 21.2 20.3 21.1999 20.3 21.0999C20.3 21.0999 20.3 21.0999 20.4 21.0999V21H20.5L20.6 20.9L20.7 20.7999L20.8 20.7C20.9 20.6 21 20.6999 21 20.5999C21.1 20.4999 21 20.4 21.1 20.4C21.2 20.3 21.1 20.2 21.2 20.2L21.3 20.0999C21.4 19.9999 21.3 19.9 21.4 19.9C21.5 19.8 21.4 19.7 21.5 19.6V19.5L21.6 19.4V19.2999V19.2C21.7 19.1 21.6 19 21.7 19V18.9C21.8 18.8 21.7 18.6 21.8 18.5C21.9 18.4 21.8 18.3 21.9 18.2C22 18.1 21.9 18 22 18C22.1 17.7999 22 17.6 22.1 17.4C22.1 17.2 22.1 17 22.1 16.7C22 16.6 22.1 16.5 22 16.4C22 16.3 22 16.3 22 16.2C21.9 16.1 22 16 21.9 16C21.8 15.9 21.9 15.8 21.8 15.7C21.7 15.6 21.8 15.5 21.7 15.5C21.6 15.4 21.7 15.3 21.6 15.3H21.5C21.6 15.2 21.6 15.2 21.5 15.1V15C21.4 14.9 21.5 14.8 21.4 14.8V14.7C21.4 14.6 21.4 14.6 21.4 14.5L21.3 14.4V14.3C21.2 14.2 21.3 14.1 21.2 14.1C21.1 14 21.2 13.9 21.1 13.8C21 13.7 21.1 13.6 21 13.6C20.9 13.5 21 13.4 20.9 13.4C20.8 13.3 20.9 13.2 20.8 13.2C20.7 13.1 20.8 13 20.7 13L20.6 12.9C20.5 12.8 20.6 12.7 20.5 12.7L20.4 12.6L20.3 12.5L20.2 12.4C20.1 12.3 20.2 12.2 20.1 12.2L20 12.1L19.9 12L19.8 11.9L19.7 11.8C19.6 11.7 19.7 11.6 19.6 11.6H19.5V11.5C19.4 11.5 19.3 11.5 19.3 11.4C19.2 11.4 19.1 11.4 19.1 11.3L19 11.2L18.9 11.1C18.8 11 18.6 11 18.6 10.9C18.5 10.9 18.4 10.9 18.3 10.9H18.2V10.8C18.1 10.8 18.1 10.8 18 10.8C17.7 10.7 17.3 10.7 17 10.8C16.9 10.8 16.8 10.8 16.8 10.8C16.7 10.7 16.7 10.7 16.6 10.8C16.5 10.8 16.4 10.8 16.3 10.8V10.9C16.1 10.9 15.9 10.9 15.6 10.9C15.6 10.9 15.6 10.9 15.6 11C15.5 11 15.4 11 15.4 11.1C15.3 11.2 15.2 11.1 15.1 11.2C15 11.3 14.9 11.2 14.9 11.3H14.8C14.8 11.3 14.7 11.3 14.7 11.4C14.7 11.4 14.7 11.4 14.6 11.4H14.5C14.5 11.4 14.5 11.4 14.5 11.5C14.5 11.5 14.5 11.5 14.4 11.5H14.3C14.3 11.5 14.3 11.5 14.3 11.6C14.3 11.6 14.3 11.6 14.2 11.6H14.1C14.1 11.6 14.1 11.6 14.1 11.7H14C13.9 11.8 13.8 11.8 13.8 11.8C13.7 11.9 13.6 11.8 13.6 11.9L13.5 12L13.4 12.1L13.3 12.2H13.2C13.1 12.2 13.1 12.3 13.1 12.3L13 12.4L12.9 12.5L12.8 12.6L12.7 12.7V12.8H12.6L12.5 12.9L12.4 13L12.3 13.1L12.2 13.2C12.1 13.3 12.1 13.4 12 13.5L11.9 13.6C11.8 13.7 11.9 13.8 11.8 13.8C11.7 13.9 11.8 14 11.7 14C11.6 14.1 11.7 14.2 11.6 14.2C11.5 14.3 11.6 14.4 11.5 14.4C11.4 14.5 11.5 14.6 11.4 14.6C11.3 14.7 11.4 14.8 11.3 14.9C11.3 15 11.3 15 11.3 15.1C11.2 15.3 11.2 15.5 11.3 15.8V15.9C11.4 16 11.3 16.2 11.4 16.4V16.5C11.5 16.6 11.4 16.7999 11.5 16.7999C11.6 16.9 11.5 17 11.6 17V17.1C11.7 17.2 11.6 17.2999 11.7 17.2999C11.8 17.4 11.7 17.5 11.8 17.5H11.9C11.9 17.6 11.9 17.6 11.9 17.7C12 17.7 12 17.8 12 17.9L12.1 18L12.2 18.1C12.4 18.2 12.5 18.2999 12.5 18.5L12.6 18.6L12.7 18.7L12.8 18.7999L12.9 18.9L13 19C13.1 19 13.1 19.1 13.1 19.2L13.2 19.2999C13.2 19.2999 13.2 19.2999 13.3 19.2999C13.3 19.4 13.3 19.5 13.4 19.5H13.5L13.6 19.6C13.6 19.7 13.7 19.6999 13.7 19.7999C13.8 19.9 13.9 19.9 13.9 19.9L14 20H14.1L14.2 20.0999L14.3 20.2H14.4C14.5 20.3 14.5 20.3 14.6 20.2C14.7 20.2 14.7 20.1999 14.8 20.0999C15.2 19.9999 15.6 20 16 19.9C16.3 19.8 16.5 19.7 16.8 19.7C17.1 19.5 17.4 19.4 17.5 19C17.5 18.9 17.6 18.9 17.7 18.7999C17.9 18.6999 18 18.5 18.2 18.2999C18.4 18.0999 18.5 17.7999 18.6 17.5C18.6 17.2 18.7 16.9 18.5 16.7C18.4 16.6 18.5 16.5 18.5 16.4C18.5 16.3 18.4 16.3 18.4 16.2C18.2 16 18.1 15.8 18 15.6C18 15.5 18 15.4 17.9 15.3C17.8 15.2 17.8 15.2 17.7 15.1C17.6 15 17.5 15.1 17.4 15.3V15.4C17.3 15.5 17.2 15.5 17.2 15.6C17.2 15.9 17 16.0999 16.9 16.2999C16.7 16.2999 16.6 16.5 16.5 16.7C16.4 16.9 16.3 17.1 16.1 17.2C15.7 17.4 15.2 17.6 14.7 17.6C14.6 17.6 14.4 17.6 14.3 17.7C14.1 17.7 13.9 17.7 13.7 17.7C13.4 17.6 13.2 17.6 12.9 17.5C12.9 17.5 13 17.5 13 17.4C12.9 17.1 12.8 16.7 12.9 16.4C12.9 16.3 12.9 16.3 12.9 16.2C13 15.8 13.3 15.5 13.4 15.1C13.5 15 13.5 14.8 13.6 14.7C14.1 14.1 14.7 13.6 15.4 13.2C15.5 13.1 15.6 13.1 15.7 13C15.7 13 15.7 13 15.8 12.9C16 12.9 16.2 12.9 16.5 12.9C16.6 12.9 16.7 12.9 16.7 12.8C17 12.8 17.3 12.7 17.6 12.7C18.2 12.7 18.8 12.7 19.4 12.9H19.5C19.6 13.2 19.8 13.3 20 13.4C20.1 13.5 20.2 13.5 20.2 13.6C20.4 14.1 20.6 14.6 20.6 15.2V15.3C20.5 15.3 20.5 15.4 20.5 15.5H20.4C20.2 15.8 20 16.1 19.9 16.4C19.4 18 18.2 18.9 16.8 19.6C16.1 19.9 15.3 20 14.6 20.2C14.5 20.2 14.5 20.2 14.4 20.2V20.2999C13.9 20.2999 13.5 20.2999 13 20.2999H12.9C12.8 20.1999 12.7 20.3 12.6 20.2C12.4 20.1 12.2 20.1999 12 20.0999H11.9C11.8 19.9999 11.7 20.1 11.6 20C11.5 19.9 11.4 20 11.3 19.9C11.2 19.8 11.1 19.7999 11 19.7999C10.9 19.6999 10.9 19.7 10.8 19.7C10.7 19.7 10.6 19.6 10.6 19.5C10.5 19.5 10.4 19.5 10.4 19.4L10.3 19.2999C10.2 19.2999 10 19.2 10 19.1C9.9 19.1 9.8 19 9.8 19H9.7V18.9L9.6 18.7999L9.5 18.7H9.4C9.4 18.6 9.4 18.6 9.4 18.5C9.3 18.4 9.2 18.3 9.2 18.2C9.1 18.2 9.1 18.1 9.1 18C8 17.9 8 17.8 8 17.7C7.9 17.6 7.9 17.6 7.9 17.5C7.8 17.4 7.8 17.2 7.7 17.2C7.7 17.1 7.7 17 7.7 16.9V16.7999H7.6V16.7C7.6 16.7 7.6 16.7 7.7 16.6C7.7 16.4 7.7 16.2 7.7 16C7.7 15.9 7.7 15.8 7.7 15.7C7.6 15.4 7.6 15 7.7 14.7C7.8 14.5 7.7 14.3 7.8 14.1C7.9 13.9 7.8 13.7 7.9 13.5C8 13.4 8 13.3 8 13.3C8.1 13.2 8 13.1 8.1 13C8.2 12.9 8.2 12.8 8.2 12.8C8.3 12.7 8.3 12.6 8.3 12.6C8.4 12.5 8.4 12.4 8.4 12.4C8.5 12.3 8.5 12.2 8.5 12.2L8.6 12.1C8.7 12 8.7 11.9 8.7 11.9C8.8 11.8 8.8 11.7 8.9 11.6L9 11.5L9.1 11.4C9.1 11.3 9.1 11.2 9.2 11.2L9.3 11.1L9.4 11L9.5 10.9L9.6 10.8L9.7 10.7V10.6H9.8V10.5H9.9L10 10.4L10.1 10.3L10.2 10.2L10.3 10.1L10.4 9.99995C10.4 9.89995 10.5 9.79995 10.6 9.79995H10.7H10.8L10.9 9.69995V9.59995H11H11.1C11.2 9.49995 11.3 9.59995 11.3 9.49995C11.4 9.39995 11.5 9.49995 11.5 9.39995H11.6L11.7 9.29995C11.8 9.19995 11.9 9.29995 11.9 9.19995H12C12.1 9.09995 12.2 9.19995 12.2 9.09995C12.3 9.09995 12.4 9.09995 12.5 9.09995C12.7 8.99995 13 9.09995 13.2 8.99995H13.3C13.6 8.79995 13.9 8.99995 14.2 8.89995C14.3 8.89995 14.4 8.89995 14.4 8.89995C14.5 8.99995 14.6 8.99995 14.7 8.89995C14.8 8.89995 14.9 8.89995 15 8.89995C15.1 8.79995 15.2 8.79995 15.3 8.89995C15.5 8.89995 15.7 8.89995 16 8.89995C16.3 8.99995 16.6 8.89995 16.9 8.99995C17.2 8.99995 17.4 8.99995 17.7 8.99995C17.9 9.09995 18.2 8.99995 18.4 9.09995C18.6 9.09995 18.8 9.09995 19 9.09995C19.2 9.19995 19.4 9.09995 19.6 9.19995C19.7 9.29995 19.9 9.19995 20 9.29995C20.1 9.39995 20.2 9.29995 20.3 9.39995H20.4C20.5 9.49995 20.6 9.39995 20.6 9.49995H20.7C20.8 9.59995 20.9 9.49995 20.9 9.59995H21C21.1 9.69995 21 9.79995 21.1 9.79995H21.2C21.3 9.89995 21.4 9.79995 21.4 9.89995C21.5 9.99995 21.6 9.89995 21.6 9.99995C21.7 10.1 21.6 10.2 21.7 10.2H21.8L21.9 10.3C22.1 10.5 22.4 10.5 22.6 10.8H22.7C22.8 10.9 22.8 11 22.9 11L23 11.1C23.1 11.2 23.2 11.2 23.2 11.3L23.3 11.4C23.4 11.5 23.3 11.6 23.4 11.6L23.5 11.7L23.6 11.8C23.7 11.9 23.8 11.9 23.8 12C23.9 12.1 24 12.1 24 12C24 12.1 24.1 12.3 24.2 12.3C24.3 12.4 24.2 12.5 24.3 12.5C24.4 12.6 24.3 12.7 24.4 12.7V12.8C24.4 12.9 24.4 13 24.5 13C24.6 13.1 24.5 13.2 24.6 13.3C24.7 13.4 24.6 13.5 24.7 13.5C24.8 13.6 24.8 13.6 24.8 13.7V13.8C24.7 13.9 24.7 13.9 24.8 14C24.8 14.2 24.8 14.4 24.8 14.5C24.8 14.5 24.9 14.5 24.9 14.6C24.9 14.9 24.9 15.2 24.9 15.5V15.6C24.9 15.7 24.9 15.7 24.9 15.8V15.9C24.9 15.9 24.9 16 24.8 16C24.8 16.1 24.8 16.1999 24.7 16.2999C24.7 16.4 24.7 16.4 24.7 16.5C24.7 16.5 24.7 16.6 24.7 16.7V16.7999C24.6 16.7999 24.6 16.9 24.6 16.9V17C24.5 17.1 24.5 17.1999 24.6 17.2999H24.7H24.6C24.5 17.4 24.5 17.5 24.4 17.5C24.4 17.6 24.4 17.7 24.3 17.7C24.1 18.1 24 18.5 23.8 18.9C23.8 19 23.7 19.1 23.7 19.1C23.4 19.3 23.2 19.7 22.9 20C22.6 20.4 22.2 20.6999 22 21.0999C21.9 21.1999 21.8 21.1999 21.7 21.2999C21.7 21.4 21.7 21.4 21.6 21.4C21.6 21.5 21.6 21.5 21.5 21.5C21.3 21.7 21.1 21.8999 20.8 22.0999C20.8 22.1999 20.7 22.2 20.7 22.2C20.5 22.4 20.2 22.5 20 22.7999H19.9V22.9H19.8V23H19.7H19.6V23.0999C19.5 23.0999 19.4 23.2 19.3 23.2C19.1 23.4 18.7 23.5 18.5 23.7C18.3 23.7 18.2 23.9 18 23.9C17.8 24.1 17.6 24.1 17.4 24.2C17 24.3 16.7 24.3999 16.3 24.5999C15.4 24.8999 14.5 25.0999 13.6 25.0999C13.4 25.0999 13.3 25.1 13.1 25.2C12.8 25.2 12.6 25.2 12.3 25.2C11.3 25.2 10.3 25.1 9.4 24.7C9.3 24.7 9.2 24.6999 9.1 24.5999C8.9 24.5999 8.6 24.5 8.4 24.4C8.2 24.4 8 24.3 7.8 24.2C7.5 24.1 7.3 24 7 23.9C6.8 23.8 6.6 23.7999 6.4 23.5999C6.3 23.5999 6.1 23.5 6.1 23.4C5.9 23.3 5.6 23.2 5.4 22.9C5.3 22.9 5.2 22.8 5.1 22.7C5 22.7 5 22.6999 5 22.5999C4.8 22.4999 4.7 22.4 4.6 22.2999C4.5 22.2999 4.3 22.1999 4.3 22.0999C4.2 22.0999 4 22 4 21.9C3.9 21.9 3.7 21.8 3.7 21.7C3.6 21.7 3.6 21.6999 3.6 21.5999C3.5 21.5999 3.5 21.5999 3.4 21.5999C3.3 21.4999 3.3 21.5 3.2 21.4C3.1 21.4 3.1 21.4 3 21.4C2.9 21.4 2.9 21.4 2.8 21.2999V21.2L2.7 21.0999C2.5 20.9999 2.4 20.9 2.4 20.7999H2.3C2.3 20.6999 2.2 20.6999 2.2 20.5999V20.5C2.1 20.4 2.1 20.4 2.1 20.2999H2C2 20.1999 2 20.1999 2 20.0999C1.9 19.9999 1.9 20 1.9 19.9C1.8 19.8 1.8 19.8 1.8 19.7C1.7 19.6 1.7 19.5 1.6 19.2999C1.6 19.0999 1.4 18.9 1.5 18.6C1.4 18.5 1.4 18.3 1.4 18.2C1.3 17.9 1.2 17.5999 1.1 17.2999C1.2 17.1999 1.2 17 1.2 16.9H1.1C1.1 16.4 1.1 15.8 1.1 15.3C1.1 15.1 1.1 14.9 1.2 14.7C1.2 14.5 1.2 14.3 1.2 14H1.3C1.3 13.9 1.3 13.9 1.3 13.8C1.4 13.7 1.4 13.6 1.5 13.5C1.5 13.4 1.5 13.3 1.6 13.3C1.6 13.1 1.6 13 1.6 12.8C1.7 12.7 1.7 12.6 1.7 12.5H1.8C1.9 12.2 2.1 12 2.2 11.7C2.3 11.5 2.4 11.4 2.5 11.2H2.6C2.7 11 2.8 10.8 3 10.7V10.6V10.5C3.1 10.4 3.1 10.4 3.2 10.3C3.2 10.2 3.2 10.2 3.3 10.2C3.4 9.99995 3.4 9.89995 3.6 9.79995C3.6 9.69995 3.6 9.69995 3.7 9.69995C3.7 9.59995 3.7 9.59995 3.8 9.59995C3.9 9.39995 4 9.19995 4.2 8.99995H4.3V8.89995C4.5 8.69995 4.7 8.59995 4.8 8.29995C4.8 8.19995 4.9 8.19995 4.9 8.19995H5V8.09995H5.1C5.3 7.79995 5.5 7.59995 5.8 7.39995C5.8 7.29995 5.8 7.29995 5.9 7.29995C5.9 7.19995 6 7.19995 6 7.19995V7.09995H6.1V6.99995L6.2 6.89995H6.3V6.79995L6.4 6.69995C6.4 6.59995 6.5 6.59995 6.5 6.59995C6.6 6.59995 6.6 6.59995 6.7 6.49995V6.39995H6.8C6.8 6.29995 6.9 6.29995 6.9 6.29995V6.19995L7 6.09995C7.1 6.09995 7.2 5.99995 7.3 5.99995C7.5 5.79995 7.7 5.49995 8 5.39995C8.1 5.29995 8.2 5.19995 8.3 5.19995C8.3 5.09995 8.4 5.09995 8.4 5.09995C8.6 4.89995 8.8 4.69995 9 4.49995H9.1C9.2 4.39995 9.3 4.29995 9.4 4.29995C9.4 4.19995 9.5 4.19995 9.5 4.19995V4.09995C9.7 3.99995 9.8 3.79995 10 3.69995L10.1 3.59995H10.2C10.2 3.59995 10.2 3.59995 10.2 3.69995C10.3 3.69995 10.4 3.69995 10.4 3.69995C10.5 3.59995 10.6 3.69995 10.7 3.59995C10.7 3.59995 10.7 3.59995 10.8 3.59995C10.9 3.59995 11 3.59995 11.1 3.49995C11.3 3.39995 11.6 3.49995 11.8 3.39995C11.9 3.39995 11.9 3.39995 12 3.39995C12.1 3.39995 12.2 3.39995 12.3 3.29995C12.4 3.39995 12.5 3.39995 12.6 3.29995C12.7 3.29995 12.7 3.29995 12.8 3.29995C12.8 3.29995 12.9 3.29995 12.8 3.19995C12.9 3.19995 12.9 3.19995 13 3.19995H13.1C13.2 3.19995 13.3 3.19995 13.4 3.19995H13.5C13.5 3.19995 13.5 3.19995 13.5 3.09995H13.6C13.7 3.09995 13.9 3.09995 14 3.09995C14 2.99995 14 3.09995 14.1 3.09995H14.2C14.2 3.09995 14.2 3.19995 14.3 3.19995C14.4 3.19995 14.5 3.19995 14.6 3.19995C14.7 3.09995 14.8 3.19995 14.9 3.09995C15.1 3.09995 15.2 3.09995 15.4 3.09995C15.6 3.29995 15.9 3.19995 16.1 3.19995C16.2 3.19995 16.3 3.19995 16.4 3.19995C16.6 3.19995 16.8 3.19995 16.9 3.39995C17 3.39995 17.2 3.39995 17.3 3.39995C17.4 3.39995 17.4 3.39995 17.5 3.39995V3.49995C17.6 3.49995 17.6 3.49995 17.7 3.49995V3.59995C17.8 3.59995 17.9 3.59995 18 3.69995C18.2 3.69995 18.3 3.79995 18.5 3.89995C18.8 3.99995 19 3.99995 19.3 3.99995V3.89995C19.4 3.89995 19.4 3.79995 19.5 3.69995C19.6 3.59995 19.7 3.39995 19.7 3.19995C19.8 2.79995 19.7 2.39995 19.7 1.99995C19.6 1.89995 19.6 1.79995 19.5 1.69995C19.5 1.49995 19.4 1.39995 19.3 1.29995V1.19995C19.2 1.09995 19.1 1.09995 19.1 0.999951C19 0.999951 19 0.899951 19 0.899951L18.9 0.799952C18.8 0.799952 18.6 0.699952 18.6 0.599952C18.4 0.599952 18.3 0.599951 18.2 0.499951C17.8 0.499951 17.4 0.399952 17 0.299952C16.5 0.299952 16 0.299952 15.5 0.299952C15.2 0.299952 14.8 0.299951 14.5 0.199951C14.3 0.299951 14.1 0.199952 13.8 0.299952C13.6 0.299952 13.4 0.299952 13.1 0.299952H13C12.9 0.399952 12.8 0.399951 12.7 0.399951C12.4 0.399951 12.1 0.399951 11.9 0.399951C11.7 0.599951 11.4 0.499951 11.1 0.499951C10.9 0.699951 10.7 0.599952 10.5 0.599952C10.4 0.699952 10.4 0.699951 10.3 0.699951H10.2C10.1 0.699951 10.1 0.699951 10 0.699951C9.9 0.799951 9.8 0.699952 9.8 0.799952H9.7L9.6 0.899951H9.5C9.4 0.999951 9.3 0.899951 9.3 0.999951H9.2V1.09995C9.1 1.09995 9.1 1.09995 9 1.09995C8.9 1.19995 8.8 1.19995 8.7 1.19995C8.6 1.29995 8.6 1.29995 8.5 1.29995L8.4 1.39995C8.2 1.59995 7.9 1.69995 7.6 1.79995L7.5 1.89995C8 0.999951 7.9 0.999951 7.8 0.999951C7.7 1.09995 7.5 1.19995 7.4 1.19995L7.3 1.29995L7.2 1.39995H7.1C7.1 1.49995 7 1.49995 6.9 1.49995L6.8 1.59995L6.7 1.69995C6.7 1.79995 6.6 1.79995 6.5 1.79995L6.4 1.89995L6.3 1.99995C6.2 2.19995 6 2.39995 5.7 2.49995L5.6 2.59995V2.69995H5.5L5.4 2.79995L5.3 2.89995L5.2 2.99995L5.1 3.09995L5 3.19995L4.9 3.29995L4.8 3.39995C4.8 3.49995 4.7 3.59995 4.6 3.59995C4.6 3.79995 4.5 3.89995 4.4 3.89995L4.3 3.99995L4.2 4.09995C4.2 4.19995 4.1 4.29995 4 4.29995L3.9 4.39995L3.8 4.49995L3.7 4.59995L3.6 4.69995L3.5 4.79995L3.4 4.89995L3.3 4.99995C3.3 5.09995 3.3 5.19995 3.2 5.19995L3.1 5.29995L3 5.39995L2.9 5.49995L2.8 5.59995C2.8 5.69995 2.8 5.79995 2.7 5.79995L2.6 5.89995L2.5 5.99995L2.4 6.09995C2.4 6.19995 2.4 6.29995 2.3 6.29995L2.2 6.39995L2.1 6.49995C2.1 6.59995 2.1 6.69995 2 6.69995L1.9 6.79995C1.9 6.99995 1.7 7.09995 1.6 7.19995C1.6 7.39995 1.5 7.49995 1.4 7.49995C1.4 7.69995 1.3 7.79995 1.2 7.79995L1.1 7.89995C1.1 7.99995 1.1 8.09995 0.999999 8.09995C0.999999 8.19995 0.999999 8.29995 0.899999 8.29995L0.799998 8.39995C0.799998 8.49995 0.799998 8.59995 0.799998 8.69995C0.799998 8.89995 0.799998 9.09995 0.799998 9.19995C0.599998 9.39995 0.6 9.69995 0.6 9.99995C0.6 9.99995 0.599999 10.1 0.499999 10.1C0.499999 10.2 0.499999 10.4 0.399999 10.4C0.399999 10.5 0.399999 10.7 0.399999 10.8C0.399999 10.9 0.399998 11 0.299998 11C0.299998 11.1 0.3 11.3 0.2 11.3C0.2 11.5 0.199998 11.7 0.299998 11.9C0.299998 12 0.299998 12.1 0.299998 12.1C0.299998 12.3 0.299998 12.5 0.299998 12.7C0.299998 12.7 0.299998 12.7 0.299998 12.8C0.199998 13 0.2 13.2 0.2 13.4C0.1 13.8 0.1 14.3 0.2 14.7C0.2 14.8 0.2 14.9 0.2 15V15.1C0.3 15.3 0.299998 15.6 0.299998 15.9H0.399999V16C0.399999 16.3 0.5 16.7 0.6 17C0.8 17.2 0.799998 17.5 0.799998 17.7999L0.899999 17.9C0.899999 18 0.899999 18 0.999999 18C0.999999 18.1 1.1 18.1999 1.1 18.2999C1 18.5 1 18.7999 1.1 19L1.2 19.1V19.2C1.4 19.4 1.5 19.6 1.5 19.9C1.6 19.9 1.7 19.9999 1.7 20.0999C1.7 20.1999 1.7 20.1999 1.7 20.2999C1.9 20.4 2.1 20.5 2.2 20.7999C2.3 20.7999 2.4 20.8 2.4 20.9C2.5 20.9 2.5 20.9999 2.5 21.0999L2.6 21.2C2.6 21.3 2.6 21.4 2.6 21.4L2.7 21.5L2.8 21.5999L2.9 21.7L3 21.7999H3.1C3.2 21.9 3.1 22 3.2 22L3.3 22.0999C3.4 22.1999 3.3 22.2999 3.4 22.2999L3.5 22.4L3.6 22.5L3.7 22.5999H3.8C3.9 22.6999 3.8 22.7999 3.9 22.7999C4 22.9 4.1 22.8 4.1 22.9C4.2 23 4.3 22.9 4.4 23L4.5 23.0999C4.6 23.1999 4.7 23.1 4.7 23.2C4.8 23.3 4.7 23.5999 4.9 23.5999H5C5.1 23.4999 5.2 23.4999 5.2 23.5999C5.2 23.6999 5.3 23.7999 5.4 23.7999C5.5 23.9 5.4 24 5.5 24C5.6 24 5.6 24 5.7 24C5.9 24.1 6.2 24.0999 6.4 24.2999C6.6 24.2999 6.7 24.2999 6.7 24.0999C6.7 24.1999 6.7 24.3 6.7 24.4C6.8 24.4 7 24.4 7.1 24.4C7.2 24.5 7.2 24.5 7.3 24.5C7.4 24.5 7.4 24.5 7.5 24.5C7.5 24.6 7.6 24.6 7.6 24.7L7.7 24.7999C7.8 24.7999 8 24.7999 8.1 24.7999C8.1 24.6999 8.1 24.6999 8.1 24.5999C8.2 24.5999 8.3 24.5999 8.4 24.5999C8.3 24.8999 8.4 25 8.6 25C8.8 24.9 8.8 24.8999 8.8 25.0999C8.9 25.1999 8.9 25.3 9 25.2C9.1 25.1 9.2 24.9999 9.2 25.0999C9.4 25.4999 9.9 25.4 10.2 25.7H10.3C10.6 25.5 11 25.7 11.3 25.7C11.4 25.8 11.5 25.8 11.6 25.7H11.7L11.8 25.7999C11.9 25.9 11.9 26 12 25.9C12.2 25.8 12.3 25.7999 12.5 26H12.6L12.7 25.9C12.8 25.8 12.9 25.8 13 25.9H13.1C13.2 25.8 13.3 25.9 13.4 25.9C13.4 25.9 13.4 26 13.5 26C13.7 26 13.9 26 14.1 26C14.1 26 14.1 26 14.1 25.9C14.2 25.9 14.3 25.9 14.4 26H14.5C14.9 25.7999 15.3 25.9 15.8 25.9C15.9 25.9 16 25.9 16.1 25.9H16.2C16.2 25.9 16.2 25.9 16.3 25.9C16.4 25.9 16.5 25.9 16.6 25.9C16.7 25.9 16.7 25.9 16.8 25.9C16.9 25.9 16.9 25.8 16.9 25.7C17 25.7 17 25.7 17.1 25.7V25.5999H17.2C17.4 25.5999 17.6 25.5999 17.8 25.5999H17.9L18 25.5H18.1C18.2 25.6 18.2 25.6 18.3 25.5C18.4 25.4 18.5 25.5 18.6 25.4L18.7 25.2999V25.2C19 25.1 19.4 25 19.7 24.9C19.8 24.8 19.9 24.8 20 24.7C20.1 24.7 20.1 24.7 20.2 24.7C20.3 24.6 20.3 24.5999 20.4 24.5999L20.5 24.5C20.6 24.4 20.6 24.4 20.7 24.4V24.2999C20.8 24.2999 20.8 24.2999 20.9 24.2999L21 24.2L21.1 24.0999H21.2L21.3 24L21.4 23.9H21.5C22 25 22 25 22.1 25L22.2 24.9C22.2 24.8 22.3 24.7999 22.4 24.7999L22.5 24.7C22.5 24.6 22.6 24.5999 22.7 24.5999L22.8 24.5L22.9 24.4L23 24.2999L23.1 24.2C23.1 24.2 23.2 24.1999 23.2 24.0999V24H23.3H23.4C23.4 24 23.5 24 23.5 23.9C23.6 23.8 23.6 23.7 23.6 23.7L23.7 23.5999L23.8 23.5L23.9 23.4L24 23.2999L24.1 23.2L24.2 23.0999C24.3 22.9999 24.3 22.9 24.3 22.9L24.4 22.7999H24.5C24.6 22.7999 24.6 22.5999 24.6 22.5999C24.7 22.4999 24.6 22.4 24.7 22.4C24.8 22.3 24.8 22.2 24.8 22.2L24.9 22.0999L25 22V21.9L25.1 21.7999V21.7H25.2C25.3 21.6 25.3 21.5 25.3 21.5C25.4 21.4 25.4 21.2999 25.5 21.2999L25.6 21.2C25.7 21.1 25.7 21 25.7 21C25.8 20.9 25.7 20.7999 25.8 20.7999C25.8 20.6999 25.8 20.6 25.9 20.5C25.9 20.4 25.9 20.2999 26 20.2999C26 20.1999 26 20.0999 26.1 20.0999C26.1 19.9999 26.1 19.9 26.2 19.9C26.3 19.8 26.3 19.7 26.3 19.7C26.4 19.6 26.3 19.4 26.4 19.2C26.5 19.1 26.5 19.1 26.4 19H26.5C26.6 18.9 26.6 18.7999 26.6 18.7999C26.6 18.4 26.6 18 26.8 17.7C26.8 17.6 26.8 17.6 26.8 17.5C26.8 17.2999 26.8 17 26.9 16.7999C26.9 16.6999 26.9 16.7 26.9 16.6C27.6 15.7 27.5 15.4 27.5 15.1Z" fill="#5C80FF"/>
</svg>
